<svg width="390" height="504" viewBox="0 0 390 504" fill="none" xmlns="http://www.w3.org/2000/svg">
<path d="M77 28C77 61.1371 50.1371 88 17 88C-16.1371 88 -43 61.1371 -43 28C-43 -5.13708 -16.1371 -32 17 -32C50.1371 -32 77 -5.13708 77 28Z" fill="white" fill-opacity="0.2"/>
<path d="M91 116C91 131.464 78.464 144 63 144C47.536 144 35 131.464 35 116C35 100.536 47.536 88 63 88C78.464 88 91 100.536 91 116Z" fill="white" fill-opacity="0.2"/>
<path d="M374 204.5C374 224.658 357.658 241 337.5 241C317.342 241 301 224.658 301 204.5C301 184.342 317.342 168 337.5 168C357.658 168 374 184.342 374 204.5Z" fill="white" fill-opacity="0.2"/>
<path d="M345 405.5C345 414.613 337.613 422 328.5 422C319.387 422 312 414.613 312 405.5C312 396.387 319.387 389 328.5 389C337.613 389 345 396.387 345 405.5Z" fill="white" fill-opacity="0.2"/>
<path d="M162 369C162 386.121 148.121 400 131 400C113.879 400 100 386.121 100 369C100 351.879 113.879 338 131 338C148.121 338 162 351.879 162 369Z" fill="white" fill-opacity="0.2"/>
<path d="M52 469C52 488.33 36.33 504 17 504C-2.32997 504 -18 488.33 -18 469C-18 449.67 -2.32997 434 17 434C36.33 434 52 449.67 52 469Z" fill="white" fill-opacity="0.2"/>
<path d="M473 331.5C473 368.779 442.779 399 405.5 399C368.221 399 338 368.779 338 331.5C338 294.221 368.221 264 405.5 264C442.779 264 473 294.221 473 331.5Z" fill="white" fill-opacity="0.2"/>
<path d="M199 184.5C199 211.286 177.286 233 150.5 233C123.714 233 102 211.286 102 184.5C102 157.714 123.714 136 150.5 136C177.286 136 199 157.714 199 184.5Z" fill="white" fill-opacity="0.2"/>
<path d="M287 149.5C287 159.717 278.717 168 268.5 168C258.283 168 250 159.717 250 149.5C250 139.283 258.283 131 268.5 131C278.717 131 287 139.283 287 149.5Z" fill="white" fill-opacity="0.2"/>
<path d="M69 304C69 322.778 53.7777 338 35 338C16.2223 338 1 322.778 1 304C1 285.222 16.2223 270 35 270C53.7777 270 69 285.222 69 304Z" fill="white" fill-opacity="0.2"/>
</svg>
