<svg width="500" height="500" viewBox="0 0 500 500" fill="none" xmlns="http://www.w3.org/2000/svg">
<rect width="500" height="500" rx="40" fill="#7E44FA"/>
<path d="M235.575 133.837L233.822 208.161L181.585 210.265L175.274 372.937L101.301 376.793L94.6396 214.121L42.4023 216.926L44.5059 134.188L235.575 133.837ZM452.588 341.734C447.095 348.629 440.317 354.648 432.254 359.79C424.19 364.931 415.543 369.197 406.311 372.586C397.078 375.975 387.613 378.546 377.913 380.299C368.214 381.935 358.981 382.753 350.217 382.753C333.272 382.753 317.671 379.89 303.414 374.164C289.156 368.437 276.827 360.491 266.427 350.324C256.143 340.04 248.079 327.828 242.236 313.688C236.393 299.547 233.472 284.121 233.472 267.41C233.472 254.672 234.932 242.285 237.854 230.248C240.776 218.211 244.924 206.934 250.3 196.417C255.792 185.899 262.453 176.258 270.283 167.493C278.113 158.729 286.994 151.191 296.928 144.88C306.861 138.57 317.729 133.72 329.532 130.331C341.452 126.825 354.073 125.072 367.396 125.072C372.421 125.072 377.796 125.306 383.522 125.773C389.249 126.124 394.917 126.825 400.526 127.877C406.252 128.812 411.803 130.156 417.179 131.909C422.554 133.662 427.463 135.824 431.903 138.395L426.995 205.356C420.451 202.902 413.673 201.266 406.661 200.448C399.766 199.513 392.988 199.046 386.327 199.046C376.978 199.046 368.214 200.331 360.033 202.902C351.97 205.356 344.9 209.038 338.823 213.946C332.863 218.854 328.13 224.989 324.624 232.352C321.118 239.714 319.365 248.245 319.365 257.944C319.365 264.021 320.183 269.923 321.819 275.649C323.455 281.258 325.91 286.283 329.182 290.724C332.571 295.048 336.719 298.554 341.627 301.242C346.653 303.93 352.437 305.273 358.981 305.273C363.422 305.273 367.98 304.689 372.654 303.521C377.446 302.352 381.536 300.365 384.925 297.561L385.626 283.888L343.556 283.187L345.659 230.599C363.072 230.014 380.484 229.547 397.896 229.196C415.309 228.729 432.838 228.145 450.484 227.443L452.588 341.734Z" fill="white"/>
</svg>
