<svg width="80" height="80" viewBox="0 0 80 80" fill="none" xmlns="http://www.w3.org/2000/svg">
<path d="M40 6C44.4649 6 48.8862 6.87943 53.0112 8.58809C57.1363 10.2968 60.8844 12.8012 64.0416 15.9584C67.1988 19.1156 69.7032 22.8637 71.4119 26.9888C73.1206 31.1138 74 35.5351 74 40C74 44.4649 73.1206 48.8862 71.4119 53.0112C69.7032 57.1363 67.1988 60.8844 64.0416 64.0416C60.8844 67.1988 57.1363 69.7032 53.0112 71.4119C48.8862 73.1206 44.4649 74 40 74C35.5351 74 31.1138 73.1206 26.9888 71.4119C22.8637 69.7032 19.1156 67.1988 15.9584 64.0416C12.8012 60.8844 10.2968 57.1363 8.58809 53.0112C6.87943 48.8862 6 44.4649 6 40C6 35.5351 6.87944 31.1138 8.5881 26.9888C10.2968 22.8637 12.8012 19.1156 15.9584 15.9584C19.1156 12.8012 22.8637 10.2968 26.9888 8.58809C31.1138 6.87943 35.5351 6 40 6L40 6Z" stroke="white" stroke-opacity="0.2" stroke-width="12"/>
</svg>
